<?xml version="1.0" standalone="no"?>
<!DOCTYPE svg PUBLIC "-//W3C//DTD SVG 20010904//EN"
 "http://www.w3.org/TR/2001/REC-SVG-20010904/DTD/svg10.dtd">
<svg version="1.0" xmlns="http://www.w3.org/2000/svg"
 width="576.000000pt" height="576.000000pt" viewBox="0 0 576.000000 576.000000"
 preserveAspectRatio="xMidYMid meet">
<metadata>
Created by potrace 1.14, written by Peter Selinger 2001-2017
</metadata>
<g transform="translate(0.000000,576.000000) scale(0.100000,-0.100000)"
fill="#000000" stroke="none">
<path d="M859 5126 c-2 -3 -49 -7 -104 -10 -233 -13 -436 -119 -586 -306 -62
-76 -133 -223 -144 -295 -2 -11 -4 -20 -5 -20 -10 0 -14 -112 -17 -515 -5
-572 -3 -588 91 -683 85 -86 148 -102 371 -96 6 0 39 0 75 -1 36 -1 70 -1 75
0 6 1 15 2 20 0 8 -1 57 -1 150 1 6 0 39 0 75 0 36 0 72 0 80 0 37 1 157 0
180 -1 110 -5 140 -4 140 3 0 5 5 5 10 2 6 -4 11 -23 10 -43 0 -20 0 -44 1
-52 0 -8 0 -35 0 -60 0 -25 0 -52 0 -60 1 -17 0 -100 -2 -145 -1 -16 -1 -37 0
-45 0 -8 0 -42 0 -75 0 -33 0 -66 0 -72 1 -7 1 -19 2 -25 0 -7 0 -33 0 -58 0
-25 0 -52 0 -60 1 -8 0 -35 0 -60 0 -25 -1 -53 -1 -62 1 -17 1 -92 1 -123 -1
-109 -1 -348 0 -445 0 -36 0 -72 0 -80 -5 -203 5 -306 45 -430 75 -239 257
-451 489 -568 46 -23 176 -68 220 -77 87 -17 174 -19 797 -19 379 -1 678 -5
678 -10 0 -5 6 -4 13 1 6 5 50 7 97 6 99 -3 90 -3 200 -2 47 1 90 0 95 -1 6
-1 13 -2 18 0 9 2 185 2 195 0 4 -2 12 -1 17 0 6 1 42 2 80 1 39 -1 79 -1 90
-1 71 0 110 -2 117 -6 4 -3 8 -2 8 3 0 4 27 8 60 8 33 0 60 -2 60 -5 0 -3 26
-4 57 -3 32 1 58 2 58 3 0 0 34 3 75 5 143 8 281 48 425 122 61 32 120 67 135
83 3 3 21 17 40 31 189 142 345 406 397 669 2 14 7 106 10 204 7 243 -7 304
-91 389 -23 23 -64 53 -91 67 -53 26 -127 32 -362 30 -57 0 -110 -1 -118 -1
-61 0 -123 0 -217 2 l-77 1 0 237 c0 131 -1 242 -2 247 -1 5 -1 12 0 17 1 4 2
54 2 112 0 58 -1 108 -2 113 -1 4 -1 11 0 16 2 12 3 370 0 382 -1 5 -1 12 0
17 3 9 3 215 0 225 -1 4 -1 11 0 16 8 43 -3 510 -13 556 -1 8 -6 33 -11 55
-18 93 -96 294 -117 303 -4 2 -8 8 -8 14 0 44 -220 297 -298 344 -18 10 -32
22 -32 26 0 4 -5 8 -11 8 -6 0 -24 9 -41 21 -63 45 -233 118 -313 135 -20 4
-47 9 -95 20 -14 3 -77 7 -140 9 -63 3 -117 5 -120 6 -20 3 -214 -2 -221 -7
-5 -3 -9 -2 -9 3 0 4 -28 7 -62 5 -95 -4 -179 -2 -188 3 -5 3 -11 1 -15 -5 -4
-6 -10 -8 -14 -6 -4 3 -25 5 -47 6 -21 0 -64 1 -94 1 -30 1 -61 1 -67 0 -27
-2 -39 -2 -83 -2 -25 0 -52 0 -60 0 -8 0 -80 0 -160 0 -80 0 -152 0 -160 0 -8
0 -44 0 -80 1 -36 1 -69 1 -75 0 -5 -1 -14 -2 -20 0 -8 1 -57 1 -150 -1 -19
-1 -257 1 -280 2 -25 1 -133 0 -160 -2 -16 0 -37 -1 -45 0 -8 0 -35 0 -60 0
-25 0 -52 -1 -60 0 -8 0 -35 0 -60 0 -25 0 -51 0 -57 0 -7 1 -19 1 -25 2 -20
1 -140 0 -173 -2 -16 0 -37 -1 -45 0 -8 0 -35 0 -60 0 -25 0 -52 -1 -60 0 -54
2 -103 1 -108 -3 -2 -3 -12 -1 -22 4 -10 5 -19 8 -21 6z m963 -326 c35 0 90 0
123 0 33 0 89 1 125 1 85 0 76 1 152 -1 37 -1 71 1 77 4 5 4 12 2 16 -4 4 -6
11 -8 16 -5 8 5 48 6 224 3 6 0 61 1 123 3 62 1 114 0 117 -2 2 -3 28 -2 57 1
29 3 77 2 106 -1 29 -3 55 -1 58 3 3 5 10 6 15 3 5 -4 67 -6 137 -5 177 1 255
1 267 0 6 -1 37 -1 70 0 287 4 395 -14 544 -93 41 -21 93 -53 115 -70 59 -47
125 -114 119 -121 -4 -3 -1 -6 6 -6 6 0 34 -35 61 -77 80 -125 118 -242 126
-392 3 -52 7 -98 10 -103 3 -4 0 -8 -6 -8 -6 0 -9 -4 -6 -9 6 -10 8 -92 4
-189 -2 -34 -1 -62 2 -62 5 0 5 -67 0 -181 -1 -24 -1 -48 0 -54 0 -5 1 -39 1
-75 0 -36 0 -121 0 -190 0 -69 0 -134 0 -145 0 -11 0 -40 0 -65 0 -44 0 -56
-2 -82 -1 -7 -1 -38 0 -68 0 -30 1 -73 1 -94 1 -22 3 -43 6 -47 2 -4 0 -10 -6
-14 -6 -4 -8 -10 -5 -14 5 -9 6 -77 4 -179 -1 -34 1 -65 3 -68 3 -2 2 -21 -2
-42 -3 -20 -3 -49 1 -63 3 -15 4 -31 0 -37 -6 -10 -106 -20 -115 -11 -3 3 -31
2 -61 -1 -31 -3 -58 -4 -60 0 -2 3 -27 3 -57 0 -29 -3 -77 -2 -106 1 -29 3
-55 3 -57 -1 -2 -3 -27 -3 -57 0 -29 3 -84 3 -123 0 -38 -3 -86 -3 -105 0 -19
3 -55 3 -80 0 -25 -3 -65 -3 -90 0 -25 3 -62 2 -83 -1 -20 -4 -40 -2 -43 2 -3
5 -10 7 -15 4 -5 -4 -55 -6 -112 -5 -149 2 -160 1 -221 -20 -60 -20 -71 -27
-125 -81 -56 -56 -97 -156 -93 -226 1 -7 1 -47 1 -88 0 -41 0 -83 0 -92 3
-120 -8 -288 -19 -288 -1 0 -4 -11 -6 -25 -7 -40 -54 -131 -99 -195 -76 -107
-196 -193 -327 -236 -102 -33 -270 -33 -375 -1 -54 17 -153 64 -153 73 0 5 -7
9 -15 9 -8 0 -50 35 -93 78 -117 117 -177 249 -188 412 -3 54 -5 167 -2 223 0
6 -1 28 -2 47 -1 19 -1 83 0 142 1 60 -1 112 -5 117 -3 5 -2 12 3 15 4 3 6 29
3 58 -3 29 -4 77 -1 106 3 29 4 55 2 57 -2 2 -4 64 -3 137 1 73 1 162 0 198 0
36 0 72 0 80 0 12 0 167 0 318 0 95 0 110 2 147 0 14 0 149 0 180 0 8 -1 50
-1 93 0 42 0 106 -1 142 0 36 0 72 0 80 3 106 1 303 -4 310 -3 5 -2 11 3 14 4
2 5 28 2 58 -3 29 -2 77 1 106 3 29 4 54 2 56 -2 2 -5 48 -7 102 -3 94 -13
150 -38 219 -16 45 -72 169 -78 175 -3 3 -13 17 -23 33 l-18 27 146 -1 c80 -1
149 1 152 4 3 4 10 4 14 1 5 -2 37 -4 71 -4z m-912 -12 c165 -43 302 -172 349
-328 14 -45 23 -183 21 -295 -1 -33 -2 -66 -1 -72 2 -26 2 -39 2 -83 0 -25 0
-52 0 -60 1 -8 0 -35 0 -60 0 -25 -1 -53 -1 -62 1 -10 1 -38 1 -63 0 -25 0
-52 0 -60 0 -8 -1 -34 -1 -57 -1 -24 -1 -47 0 -53 1 -5 2 -24 1 -41 -1 -29 -5
-32 -36 -36 -19 -2 -35 -2 -35 2 0 3 -24 4 -52 3 -90 -3 -111 -3 -182 -4 -38
0 -73 -2 -77 -5 -4 -2 -10 0 -14 6 -4 6 -11 8 -16 5 -5 -4 -55 -6 -112 -5 -56
1 -108 1 -114 1 -21 0 -122 0 -135 0 -7 1 -24 0 -38 0 -110 -5 -165 2 -155 20
4 5 6 38 5 74 -1 36 -1 73 -1 83 3 151 1 304 -4 312 -3 5 -2 11 3 14 4 2 5 28
2 58 -3 29 -2 77 1 106 3 29 2 55 -2 58 -5 3 -6 10 -4 17 2 7 6 44 9 82 2 39
10 86 16 105 6 19 13 43 15 52 6 29 71 122 115 165 36 36 180 123 180 110 0
-3 17 1 37 8 33 11 183 13 223 3z m2562 -2867 c21 3 40 4 43 1 2 -3 35 -4 72
-3 38 1 73 2 78 2 6 0 39 0 75 0 36 -1 100 -1 143 -1 42 0 84 -1 92 -1 31 0
166 0 180 0 8 1 22 1 30 1 18 1 98 1 123 0 9 0 37 1 62 1 25 0 52 1 60 0 8 0
35 0 60 0 25 0 51 0 58 0 6 -1 18 -1 25 -2 6 0 39 0 72 0 33 0 67 0 75 0 8 -1
29 -1 45 0 45 2 128 3 145 2 8 0 35 0 60 0 25 0 51 0 58 0 6 -1 18 -1 25 -2 6
0 39 0 72 0 33 0 67 0 75 0 8 -1 29 0 45 0 17 1 67 1 112 1 l82 -2 1 -76 c1
-42 1 -84 2 -92 2 -37 -14 -161 -28 -215 -14 -55 -88 -217 -113 -247 -193
-230 -362 -316 -636 -325 -170 -5 -415 -6 -420 -1 -2 2 -28 1 -57 -2 -29 -3
-77 -2 -106 1 -29 3 -55 1 -58 -3 -3 -5 -9 -6 -14 -3 -7 5 -204 7 -310 4 -8 0
-44 0 -80 0 -36 1 -100 1 -142 1 -43 0 -85 1 -93 1 -31 0 -166 0 -180 0 -8 -1
-22 -1 -30 -1 -18 -1 -98 -1 -122 0 -10 0 -35 0 -56 0 -43 0 -43 -2 14 75 63
84 135 231 154 312 3 10 9 37 15 60 10 41 24 173 21 203 -2 35 0 114 4 118 2
2 0 14 -4 26 -4 11 -5 35 -1 51 3 17 3 44 -1 62 -9 44 6 54 75 52 31 -1 58 0
61 3 3 2 26 2 52 -2 27 -3 65 -3 85 1z"/>
</g>
</svg>
